<?xml version="1.0" encoding="UTF-8"?>
<!-- Generated by Pixelmator Pro 4.3 -->
<svg viewBox="0 0 1778 1155" xmlns="http://www.w3.org/2000/svg" xmlns:c2pa="http://c2pa.org/manifest"><metadata><c2pa:manifest>AAAWgmp1bWIAAAAeanVtZGMycGEAEQAQgAAAqgA4m3EDYzJwYQAAABZcanVtYgAAAEdqdW1kYzJtYQARABCAAACqADibcQN1cm46YzJwYToyZTg2MmM0Zi0zMzM5LTQ0NTUtOGFjOS0xMWI0ZGVkNmU3MzMAAAADl2p1bWIAAAApanVtZGMyYXMAEQAQgAAAqgA4m3EDYzJwYS5hc3NlcnRpb25zAAAAALxqdW1iAAAARGp1bWRjYm9yABEAEIAAAKoAOJtxE2MycGEuaW5ncmVkaWVudC52MwAAAAAYYzJzaADmTFv0xbWS32mYL+xWAV0AAABwY2JvcqNpZGM6Zm9ybWF0bWltYWdlL3N2Zyt4bWxqaW5zdGFuY2VJRHgseG1wOmlpZDo5YmQ0NmNiNS04N2Q0LTQ5NTYtYmYyNS0yYjE3MGM2YWI4NjJscmVsYXRpb25zaGlwaHBhcmVudE9mAAAB4mp1bWIAAABBanVtZGNib3IAEQAQgAAAqgA4m3ETYzJwYS5hY3Rpb25zLnYyAAAAABhjMnNoYnqeyItZoKVa01sEYjSUiwAAAZljYm9yomdhY3Rpb25zgqJmYWN0aW9ua2MycGEub3BlbmVkanBhcmFtZXRlcnOha2luZ3JlZGllbnRzgaJjdXJseC1zZWxmI2p1bWJmPWMycGEuYXNzZXJ0aW9ucy9jMnBhLmluZ3JlZGllbnQudjNkaGFzaFggiPO/APBCAzJGbj76SHKhIR6ZfdcY+fXjdOJAYRcMuxakZmFjdGlvbngdY29tLmFudGhyb3BpYy5jbGF1ZGUucHJvdmlkZWRqcGFyYW1ldGVyc6F4H2NvbS5hbnRocm9waWMub3JpZ2luLWNvbmZpZGVuY2VndW5rbm93bmtkZXNjcmlwdGlvbnhmQ2xhdWRlIHByb3ZpZGVkIHRoaXMgZmlsZSBhdCB0aGUgcmVxdWVzdCBvZiBhIHVzZXIgYW5kIG1heSBoYXZlIGNyZWF0ZWQgb3IgbW9kaWZpZWQgdGhlIGZpbGUgY29udGVudHMubXNvZnR3YXJlQWdlbnShZG5hbWVmQ2xhdWRlcmFsbEFjdGlvbnNJbmNsdWRlZPUAAADIanVtYgAAAEBqdW1kY2JvcgARABCAAACqADibcRNjMnBhLmhhc2guZGF0YQAAAAAYYzJzaP2tRqbHEuOdmbNCc+Vw2FUAAACAY2JvcqVjYWxnZnNoYTI1NmNwYWRNAAAAAAAAAAAAAAAAAGRoYXNoWCCEAQOYMfTCdU0TsB2K0ruWMImuewhQ8/btQlyfBztG5mRuYW1lbmp1bWJmIG1hbmlmZXN0amV4Y2x1c2lvbnOBomVzdGFydBjPZmxlbmd0aBkeBAAAAj5qdW1iAAAAJ2p1bWRjMmNsABEAEIAAAKoAOJtxA2MycGEuY2xhaW0udjIAAAACD2Nib3KlY2FsZ2ZzaGEyNTZpc2lnbmF0dXJleE1zZWxmI2p1bWJmPS9jMnBhL3VybjpjMnBhOjJlODYyYzRmLTMzMzktNDQ1NS04YWM5LTExYjRkZWQ2ZTczMy9jMnBhLnNpZ25hdHVyZWppbnN0YW5jZUlEeCx4bXA6aWlkOmYxZjRjNzlhLTEzZGEtNDA3ZS05M2YwLWJiNzljN2MxNzBiMXJjcmVhdGVkX2Fzc2VydGlvbnODomN1cmx4LXNlbGYjanVtYmY9YzJwYS5hc3NlcnRpb25zL2MycGEuaW5ncmVkaWVudC52M2RoYXNoWCCI878A8EIDMkZuPvpIcqEhHpl91xj59eN04kBhFwy7FqJjdXJseCpzZWxmI2p1bWJmPWMycGEuYXNzZXJ0aW9ucy9jMnBhLmFjdGlvbnMudjJkaGFzaFggf4cDSBMKDpSjgW+IzP3nm9zw4bgTHqXQPjpm5XHW/v2iY3VybHgpc2VsZiNqdW1iZj1jMnBhLmFzc2VydGlvbnMvYzJwYS5oYXNoLmRhdGFkaGFzaFggi4VoBt+H2XRWIBYDlMSZMBHR12E49boo3koXLr1da5J0Y2xhaW1fZ2VuZXJhdG9yX2luZm+jZG5hbWVvQW50aHJvcGljIEZpbGVzZ3ZlcnNpb25lMS4wLjBrc3BlY1ZlcnNpb25lMi40LjAAABA4anVtYgAAAChqdW1kYzJjcwARABCAAACqADibcQNjMnBhLnNpZ25hdHVyZQAAABAIY2JvctKEWQISogEmGCFZAgowggIGMIIBjaADAgECAhRA5aAK7sI50L64g/oGQgU9Z1UTADAKBggqhkjOPQQDAzBJMRcwFQYDVQQKEw5BbnRocm9waWMsIFBCQzEuMCwGA1UEAxMlQW50aHJvcGljIENvbnRlbnQgQ3JlZGVudGlhbHMgUm9vdCBDQTAeFw0yNjA4MDcxODQzNTZaFw0yODA4MDYxOTQzNTZaMEQxFzAVBgNVBAoTDkFudGhyb3BpYywgUEJDMSkwJwYDVQQDEyBBbnRocm9waWMgQ2xhdWRlIENvbnRlbnQgU2lnbmluZzBZMBMGByqGSM49AgEGCCqGSM49AwEHA0IABJh6CmvLUBgFFNU0vUKlOVtE6djd17L5SuwX0LemFisBM3dkd/3cyjxFA3Qo5S46fX0/ihY0VZ7mfb9KF703t5OjWDBWMA4GA1UdDwEB/wQEAwIHgDAVBgNVHSUEDjAMBgorBgEEAYPoXgIBMAwGA1UdEwEB/wQCMAAwHwYDVR0jBBgwFoAUzlHiBIFOZFsj+OPEz5o+nMHXXMIwCgYIKoZIzj0EAwMDZwAwZAIwMXMdFJ4BetLLVY7ORuE9noqbbAZOZn/aArXyTwFAZfKrPzxF2vPoJNf1+UCdg1XGAjBwX1zd9WGqYkqmL5SFqw1QySjr1zJfpJM9+1rdDwSPLMOPOjKuiXjoU/pUUeG9RwmhY3BhZFkNngAAAAAAAAAAAAAAAAAAAAAAAAAAAAAAAAAAAAAAAAAAAAAAAAAAAAAAAAAAAAAAAAAAAAAAAAAAAAAAAAAAAAAAAAAAAAAAAAAAAAAAAAAAAAAAAAAAAAAAAAAAAAAAAAAAAAAAAAAAAAAAAAAAAAAAAAAAAAAAAAAAAAAAAAAAAAAAAAAAAAAAAAAAAAAAAAAAAAAAAAAAAAAAAAAAAAAAAAAAAAAAAAAAAAAAAAAAAAAAAAAAAAAAAAAAAAAAAAAAAAAAAAAAAAAAAAAAAAAAAAAAAAAAAAAAAAAAAAAAAAAAAAAAAAAAAAAAAAAAAAAAAAAAAAAAAAAAAAAAAAAAAAAAAAAAAAAAAAAAAAAAAAAAAAAAAAAAAAAAAAAAAAAAAAAAAAAAAAAAAAAAAAAAAAAAAAAAAAAAAAAAAAAAAAAAAAAAAAAAAAAAAAAAAAAAAAAAAAAAAAAAAAAAAAAAAAAAAAAAAAAAAAAAAAAAAAAAAAAAAAAAAAAAAAAAAAAAAAAAAAAAAAAAAAAAAAAAAAAAAAAAAAAAAAAAAAAAAAAAAAAAAAAAAAAAAAAAAAAAAAAAAAAAAAAAAAAAAAAAAAAAAAAAAAAAAAAAAAAAAAAAAAAAAAAAAAAAAAAAAAAAAAAAAAAAAAAAAAAAAAAAAAAAAAAAAAAAAAAAAAAAAAAAAAAAAAAAAAAAAAAAAAAAAAAAAAAAAAAAAAAAAAAAAAAAAAAAAAAAAAAAAAAAAAAAAAAAAAAAAAAAAAAAAAAAAAAAAAAAAAAAAAAAAAAAAAAAAAAAAAAAAAAAAAAAAAAAAAAAAAAAAAAAAAAAAAAAAAAAAAAAAAAAAAAAAAAAAAAAAAAAAAAAAAAAAAAAAAAAAAAAAAAAAAAAAAAAAAAAAAAAAAAAAAAAAAAAAAAAAAAAAAAAAAAAAAAAAAAAAAAAAAAAAAAAAAAAAAAAAAAAAAAAAAAAAAAAAAAAAAAAAAAAAAAAAAAAAAAAAAAAAAAAAAAAAAAAAAAAAAAAAAAAAAAAAAAAAAAAAAAAAAAAAAAAAAAAAAAAAAAAAAAAAAAAAAAAAAAAAAAAAAAAAAAAAAAAAAAAAAAAAAAAAAAAAAAAAAAAAAAAAAAAAAAAAAAAAAAAAAAAAAAAAAAAAAAAAAAAAAAAAAAAAAAAAAAAAAAAAAAAAAAAAAAAAAAAAAAAAAAAAAAAAAAAAAAAAAAAAAAAAAAAAAAAAAAAAAAAAAAAAAAAAAAAAAAAAAAAAAAAAAAAAAAAAAAAAAAAAAAAAAAAAAAAAAAAAAAAAAAAAAAAAAAAAAAAAAAAAAAAAAAAAAAAAAAAAAAAAAAAAAAAAAAAAAAAAAAAAAAAAAAAAAAAAAAAAAAAAAAAAAAAAAAAAAAAAAAAAAAAAAAAAAAAAAAAAAAAAAAAAAAAAAAAAAAAAAAAAAAAAAAAAAAAAAAAAAAAAAAAAAAAAAAAAAAAAAAAAAAAAAAAAAAAAAAAAAAAAAAAAAAAAAAAAAAAAAAAAAAAAAAAAAAAAAAAAAAAAAAAAAAAAAAAAAAAAAAAAAAAAAAAAAAAAAAAAAAAAAAAAAAAAAAAAAAAAAAAAAAAAAAAAAAAAAAAAAAAAAAAAAAAAAAAAAAAAAAAAAAAAAAAAAAAAAAAAAAAAAAAAAAAAAAAAAAAAAAAAAAAAAAAAAAAAAAAAAAAAAAAAAAAAAAAAAAAAAAAAAAAAAAAAAAAAAAAAAAAAAAAAAAAAAAAAAAAAAAAAAAAAAAAAAAAAAAAAAAAAAAAAAAAAAAAAAAAAAAAAAAAAAAAAAAAAAAAAAAAAAAAAAAAAAAAAAAAAAAAAAAAAAAAAAAAAAAAAAAAAAAAAAAAAAAAAAAAAAAAAAAAAAAAAAAAAAAAAAAAAAAAAAAAAAAAAAAAAAAAAAAAAAAAAAAAAAAAAAAAAAAAAAAAAAAAAAAAAAAAAAAAAAAAAAAAAAAAAAAAAAAAAAAAAAAAAAAAAAAAAAAAAAAAAAAAAAAAAAAAAAAAAAAAAAAAAAAAAAAAAAAAAAAAAAAAAAAAAAAAAAAAAAAAAAAAAAAAAAAAAAAAAAAAAAAAAAAAAAAAAAAAAAAAAAAAAAAAAAAAAAAAAAAAAAAAAAAAAAAAAAAAAAAAAAAAAAAAAAAAAAAAAAAAAAAAAAAAAAAAAAAAAAAAAAAAAAAAAAAAAAAAAAAAAAAAAAAAAAAAAAAAAAAAAAAAAAAAAAAAAAAAAAAAAAAAAAAAAAAAAAAAAAAAAAAAAAAAAAAAAAAAAAAAAAAAAAAAAAAAAAAAAAAAAAAAAAAAAAAAAAAAAAAAAAAAAAAAAAAAAAAAAAAAAAAAAAAAAAAAAAAAAAAAAAAAAAAAAAAAAAAAAAAAAAAAAAAAAAAAAAAAAAAAAAAAAAAAAAAAAAAAAAAAAAAAAAAAAAAAAAAAAAAAAAAAAAAAAAAAAAAAAAAAAAAAAAAAAAAAAAAAAAAAAAAAAAAAAAAAAAAAAAAAAAAAAAAAAAAAAAAAAAAAAAAAAAAAAAAAAAAAAAAAAAAAAAAAAAAAAAAAAAAAAAAAAAAAAAAAAAAAAAAAAAAAAAAAAAAAAAAAAAAAAAAAAAAAAAAAAAAAAAAAAAAAAAAAAAAAAAAAAAAAAAAAAAAAAAAAAAAAAAAAAAAAAAAAAAAAAAAAAAAAAAAAAAAAAAAAAAAAAAAAAAAAAAAAAAAAAAAAAAAAAAAAAAAAAAAAAAAAAAAAAAAAAAAAAAAAAAAAAAAAAAAAAAAAAAAAAAAAAAAAAAAAAAAAAAAAAAAAAAAAAAAAAAAAAAAAAAAAAAAAAAAAAAAAAAAAAAAAAAAAAAAAAAAAAAAAAAAAAAAAAAAAAAAAAAAAAAAAAAAAAAAAAAAAAAAAAAAAAAAAAAAAAAAAAAAAAAAAAAAAAAAAAAAAAAAAAAAAAAAAAAAAAAAAAAAAAAAAAAAAAAAAAAAAAAAAAAAAAAAAAAAAAAAAAAAAAAAAAAAAAAAAAAAAAAAAAAAAAAAAAAAAAAAAAAAAAAAAAAAAAAAAAAAAAAAAAAAAAAAAAAAAAAAAAAAAAAAAAAAAAAAAAAAAAAAAAAAAAAAAAAAAAAAAAAAAAAAAAAAAAAAAAAAAAAAAAAAAAAAAAAAAAAAAAAAAAAAAAAAAAAAAAAAAAAAAAAAAAAAAAAAAAAAAAAAAAAAAAAAAAAAAAAAAAAAAAAAAAAAAAAAAAAAAAAAAAAAAAAAAAAAAAAAAAAAAAAAAAAAAAAAAAAAAAAAAAAAAAAAAAAAAAAAAAAAAAAAAAAAAAAAAAAAAAAAAAAAAAAAAAAAAAAAAAAAAAAAAAAAAAAAAAAAAAAAAAAAAAAAAAAAAAAAAAAAAAAAAAAAAAAAAAAAAAAAAAAAAAAAAAAAAAAAAAAAAAAAAAAAAAAAAAAAAAAAAAAAAAAAAAAAAAAAAAAAAAAAAAAAAAAAAAAAAAAAAAAAAAAAAAAAAAAAAAAAAAAAAAAAAAAAAAAAAAAAAAAAAAAAAAAAAAAAAAAAAAAAAAAAAAAAAAAAAAAAAAAAAAAAAAAAAAAAAAAAAAAAAAAAAAAAAAAAAAAAAAAAAAAAAAAAAAAAAAAAAAAAAAAAAAAAAAAAAAAAAAAAAAAAAAAAAAAAAAAAAAAAAAAAAAAAAAAAAAAAAAAAAAAAAAAAAAAAAAAAAAAAAAAAAAAAAAAAAAAAAAAAAAAAAAAAAAAAAAAAAAAAAAAAAAAAAAAAAAAAAAAAAAAAAAAAAAAAAAAAAAAAAAAAAAAAAAAAAAAAAAAAAAAAAAAAAAAAAAAAAAAAAAAAAAAAAAAAAAAAAAAAAAAAAAAAAAAAAAAAAAAAAAAAAAAAAAAAAAAAAAAAAAAAAAAAAAAAAAAAAAAAAAAAAAAAAAAAAAAAAAAAAAAAAAAAAAAAAAAAAAAAAAAAAAAAAAAAAAAAAAAAAAAAAAAAAAAAAAAAAAAAAAAAAAAAAAAAAAAAAAAAAAAAAAAAAAAAAAAAAAAAAAAAAAAAAAAAAAAAAAAAAAAAAAAAAAAAAAAAAAAAAAAAAAAAAAAAAAAAAAAAAAAAAAAAAAAAAAAAAAAAAAAAAAAAAAAAAAAAAAAAAAAAAAAAAAAAAAAAAAAAAAAAAAAAAAAAAAAAAAAAAAAAAAAAAAAAAAAAAAAAAAAAAAAAAAAAAAAAAAAAAAAAAAAAAAAAAAAAAAAAAAAAAAAAAAAAAAAAAAAAAAAAAAAAAAAAAAAAAAAAAAAAAAAAAAAAAAAAAAAAAAAAAAAAAAAAAAAAAAAAAAAAAAAAAAAAAAAAAAAAAAAAAAAAAAAAAAAAAAAAAAAAAAAAAAAAAAAAAAAAAAAAAAAAAAAAAAAAAAAAAAAAAAAAAAAAAAAAAAAAAAAAAAAAAAAAAAAAAAAAAAAAAAAAAAAAAAAAAAAAAAAAAAAAAAAAAAAAAAAAAAAAAAAAAAAAAAAAAAAAAAAAAAAAAAAAAAAAAAAAAAAAAAAAAAAAAAAAAAAAAAAAAAAAAAAAAAAAAAAAAAAAAAAAAAAAAAAAAAAAAAAAAAAAAAAAAAAAAAAAAAAAAAAAAAAAAAAAAAAAAAAAAAAAAAAAAAAAAAAAAAAAAAAAAAAAAAAAAAAAAAAAAAPZYQIGmnymimftm4rW8I1RnQJE+CVH1qLbryyAFEy4MHK+X9lbSvSAlClvye6FymKD4hOkHpqJlUEM9RMlcCjCpJFc=</c2pa:manifest></metadata>
    <path id="LOFT" fill="#24384a" stroke="none" d="M 675.467529 709.709961 C 714.531738 709.709961 749.354858 702.064331 779.937988 686.772705 C 810.52124 671.481201 836.349365 650.2146 857.423584 622.972534 C 878.497559 595.730347 894.495605 564.18396 905.418213 528.332275 C 915.298218 495.902832 920.709656 461.318481 921.65271 424.57843 L 921.414063 700.460938 L 852.414063 700.460938 L 852.414063 702 L 1072.148438 702 L 1072.148438 700.460938 L 995.046875 700.460938 L 995.046875 415.1875 L 1029.898438 415.1875 C 1052.15332 415.187988 1070.861938 418.271973 1086.025024 424.440002 C 1101.18811 430.608032 1112.624512 439.667175 1120.334473 451.617737 C 1128.044556 463.568298 1131.899536 478.152893 1131.899536 495.372009 L 1133.445313 495.375 L 1133.445313 337.320313 L 1131.898438 337.320313 C 1131.899536 354.536072 1128.044556 368.799438 1120.334473 380.107483 C 1112.624512 391.415527 1101.18811 399.832214 1086.025024 405.357727 C 1070.861938 410.883301 1052.15332 413.645996 1029.898682 413.645996 L 995.046875 413.648438 L 995.046875 125.289063 L 1118.304688 125.289063 C 1148.442017 125.291992 1173.083618 132.616455 1192.230225 147.265503 C 1211.376831 161.914551 1225.44751 181.125122 1234.442505 204.897766 C 1242.396729 225.9198 1246.834106 248.39856 1247.754395 272.334595 L 1247.546875 297.226563 L 1249.09375 297.226563 L 1249.367188 281.804688 L 1249.460938 278.109375 C 1250.137085 260.866943 1251.749023 244.558411 1254.295776 229.184265 C 1257.765259 208.238647 1263.740479 189.991821 1272.221558 174.443237 C 1280.702515 158.894653 1292.267456 146.815796 1306.916504 138.206299 C 1321.565552 129.59668 1340.238037 125.291992 1362.934448 125.291992 L 1440.296875 125.289063 L 1440.296875 700.460938 L 1355.492188 700.460938 L 1355.492188 702 L 1598.351563 702 L 1598.351563 700.460938 L 1513.546875 700.460938 L 1513.546875 125.289063 L 1590.382813 125.289063 C 1612.915283 125.291992 1631.571777 129.59668 1646.349121 138.206299 C 1661.126953 146.815796 1672.755859 158.894653 1681.237061 174.443237 C 1689.718018 189.991821 1695.693359 208.238647 1699.162598 229.184265 C 1702.632324 250.129883 1704.366943 272.809875 1704.366943 297.224976 L 1706.296875 297.226563 L 1706.296875 123.75 L 1249.476563 123.75 L 1247.546875 123.75 L 852.414063 123.75 L 852.414063 125.289063 L 921.414063 125.289063 L 921.664063 401.84375 C 920.715332 364.854858 914.979614 330.045593 904.45459 297.417725 C 892.889404 261.566101 876.248779 230.019653 854.532227 202.777527 C 832.815674 175.5354 806.858887 154.268799 776.661255 138.977295 C 746.463623 123.685669 712.732666 116.040039 675.467529 116.040039 C 638.202393 116.040039 604.375977 123.685669 573.987549 138.977295 C 543.599243 154.268799 517.590332 175.5354 495.959961 202.777527 C 474.329712 230.019653 457.656006 261.566101 445.938354 297.417725 C 434.220703 333.269409 428.362061 371.754822 428.362061 412.875 C 428.362061 453.995178 433.887451 492.480591 444.938477 528.332275 C 446.030792 531.875916 447.172699 535.377563 448.364166 538.837097 L 448.678894 538.731079 C 448.212677 559.2901 446.323395 578.568176 443.010986 596.565735 C 439.156006 617.511353 432.088623 635.758179 421.808472 651.306763 C 411.528442 666.855347 396.879639 678.934204 377.861511 687.543762 C 358.843384 696.15332 334.171631 700.458008 303.845459 700.458008 L 184.726563 700.460938 L 184.726563 125.289063 L 253.734375 125.289063 L 253.734375 123.75 L 42.09375 123.75 L 42.09375 125.289063 L 111.09375 125.289063 L 111.09375 700.460938 L 42.09375 700.460938 L 42.09375 702 L 450.335938 702 L 450.105042 543.764526 C 460.808167 573.306458 475.212708 599.708862 493.318726 622.972534 C 514.521362 650.2146 540.413818 671.481201 570.99707 686.772705 C 601.580078 702.064331 636.40332 709.709961 675.467529 709.709961 Z M 675.467529 708.167969 C 642.057373 708.167969 614.879883 699.494324 593.934326 682.146729 C 572.988647 664.799194 556.990479 641.797852 545.939453 613.142212 C 534.888428 584.486572 527.307007 552.683167 523.195068 517.730957 C 519.083008 482.778809 517.026978 447.762939 517.026978 412.682251 C 517.026978 377.601563 519.404297 342.649902 524.158691 307.826233 C 528.91333 273.002563 537.137207 241.263367 548.830811 212.607727 C 560.524292 183.952148 576.650879 160.950928 597.210938 143.603271 C 617.771118 126.255615 643.856323 117.582031 675.467529 117.582031 C 706.966309 117.582031 732.959106 126.255615 753.446899 143.603271 C 773.934814 160.950928 790.025146 183.952148 801.71875 212.607727 C 813.412354 241.263367 821.572021 273.002563 826.197998 307.826233 C 830.823975 342.649902 833.136963 377.601563 833.136963 412.682251 C 833.136963 447.762939 831.145264 482.778809 827.161743 517.730957 C 823.178223 552.683167 815.661133 584.486572 804.609985 613.142212 C 793.55896 641.797852 777.689331 664.799194 757.000732 682.146729 C 736.312134 699.494324 709.134644 708.167969 675.467529 708.167969 Z"/>
    <path id="LOFT-copy" fill="#24384a" stroke="none" d="M 675.467529 709.709961 C 714.531738 709.709961 749.354858 702.064331 779.937988 686.772705 C 810.52124 671.481201 836.349365 650.2146 857.423584 622.972534 C 878.497559 595.730347 894.495605 564.18396 905.418213 528.332275 C 915.298218 495.902832 920.709656 461.318481 921.65271 424.57843 L 921.414063 700.460938 L 852.414063 700.460938 L 852.414063 702 L 1072.148438 702 L 1072.148438 700.460938 L 995.046875 700.460938 L 995.046875 415.1875 L 1029.898438 415.1875 C 1052.15332 415.187988 1070.861938 418.271973 1086.025024 424.440002 C 1101.18811 430.608032 1112.624512 439.667175 1120.334473 451.617737 C 1128.044556 463.568298 1131.899536 478.152893 1131.899536 495.372009 L 1133.445313 495.375 L 1133.445313 337.320313 L 1131.898438 337.320313 C 1131.899536 354.536072 1128.044556 368.799438 1120.334473 380.107483 C 1112.624512 391.415527 1101.18811 399.832214 1086.025024 405.357727 C 1070.861938 410.883301 1052.15332 413.645996 1029.898682 413.645996 L 995.046875 413.648438 L 995.046875 125.289063 L 1118.304688 125.289063 C 1148.442017 125.291992 1173.083618 132.616455 1192.230225 147.265503 C 1211.376831 161.914551 1225.44751 181.125122 1234.442505 204.897766 C 1242.396729 225.9198 1246.834106 248.39856 1247.754395 272.334595 L 1247.546875 297.226563 L 1249.09375 297.226563 L 1249.367188 281.804688 L 1249.460938 278.109375 C 1250.137085 260.866943 1251.749023 244.558411 1254.295776 229.184265 C 1257.765259 208.238647 1263.740479 189.991821 1272.221558 174.443237 C 1280.702515 158.894653 1292.267456 146.815796 1306.916504 138.206299 C 1321.565552 129.59668 1340.238037 125.291992 1362.934448 125.291992 L 1440.296875 125.289063 L 1440.296875 700.460938 L 1355.492188 700.460938 L 1355.492188 702 L 1598.351563 702 L 1598.351563 700.460938 L 1513.546875 700.460938 L 1513.546875 125.289063 L 1590.382813 125.289063 C 1612.915283 125.291992 1631.571777 129.59668 1646.349121 138.206299 C 1661.126953 146.815796 1672.755859 158.894653 1681.237061 174.443237 C 1689.718018 189.991821 1695.693359 208.238647 1699.162598 229.184265 C 1702.632324 250.129883 1704.366943 272.809875 1704.366943 297.224976 L 1706.296875 297.226563 L 1706.296875 123.75 L 1249.476563 123.75 L 1247.546875 123.75 L 852.414063 123.75 L 852.414063 125.289063 L 921.414063 125.289063 L 921.664063 401.84375 C 920.715332 364.854858 914.979614 330.045593 904.45459 297.417725 C 892.889404 261.566101 876.248779 230.019653 854.532227 202.777527 C 832.815674 175.5354 806.858887 154.268799 776.661255 138.977295 C 746.463623 123.685669 712.732666 116.040039 675.467529 116.040039 C 638.202393 116.040039 604.375977 123.685669 573.987549 138.977295 C 543.599243 154.268799 517.590332 175.5354 495.959961 202.777527 C 474.329712 230.019653 457.656006 261.566101 445.938354 297.417725 C 434.220703 333.269409 428.362061 371.754822 428.362061 412.875 C 428.362061 453.995178 433.887451 492.480591 444.938477 528.332275 C 446.030792 531.875916 447.172699 535.377563 448.364166 538.837097 L 448.678894 538.731079 C 448.212677 559.2901 446.323395 578.568176 443.010986 596.565735 C 439.156006 617.511353 432.088623 635.758179 421.808472 651.306763 C 411.528442 666.855347 396.879639 678.934204 377.861511 687.543762 C 358.843384 696.15332 334.171631 700.458008 303.845459 700.458008 L 184.726563 700.460938 L 184.726563 125.289063 L 253.734375 125.289063 L 253.734375 123.75 L 42.09375 123.75 L 42.09375 125.289063 L 111.09375 125.289063 L 111.09375 700.460938 L 42.09375 700.460938 L 42.09375 702 L 450.335938 702 L 450.105042 543.764526 C 460.808167 573.306458 475.212708 599.708862 493.318726 622.972534 C 514.521362 650.2146 540.413818 671.481201 570.99707 686.772705 C 601.580078 702.064331 636.40332 709.709961 675.467529 709.709961 Z M 675.467529 708.167969 C 642.057373 708.167969 614.879883 699.494324 593.934326 682.146729 C 572.988647 664.799194 556.990479 641.797852 545.939453 613.142212 C 534.888428 584.486572 527.307007 552.683167 523.195068 517.730957 C 519.083008 482.778809 517.026978 447.762939 517.026978 412.682251 C 517.026978 377.601563 519.404297 342.649902 524.158691 307.826233 C 528.91333 273.002563 537.137207 241.263367 548.830811 212.607727 C 560.524292 183.952148 576.650879 160.950928 597.210938 143.603271 C 617.771118 126.255615 643.856323 117.582031 675.467529 117.582031 C 706.966309 117.582031 732.959106 126.255615 753.446899 143.603271 C 773.934814 160.950928 790.025146 183.952148 801.71875 212.607727 C 813.412354 241.263367 821.572021 273.002563 826.197998 307.826233 C 830.823975 342.649902 833.136963 377.601563 833.136963 412.682251 C 833.136963 447.762939 831.145264 482.778809 827.161743 517.730957 C 823.178223 552.683167 815.661133 584.486572 804.609985 613.142212 C 793.55896 641.797852 777.689331 664.799194 757.000732 682.146729 C 736.312134 699.494324 709.134644 708.167969 675.467529 708.167969 Z"/>
    <path id="ADVISORY" fill="#24384a" stroke="none" d="M 1537.011963 919.820007 L 1537.011963 1037 L 1529.073975 1037 L 1529.073975 919.820007 L 1463.680176 769.375977 L 1472.374023 769.375977 L 1533.231934 909.992004 L 1594.468018 769.375977 L 1603.540039 769.375977 Z M 1401.310059 1037 L 1344.988037 902.053955 L 1302.651978 902.053955 L 1302.651978 1037 L 1294.33606 1037 L 1294.33606 769.375977 L 1346.878052 769.375977 C 1353.430054 769.375977 1360.359985 770.320984 1367.667969 772.210999 C 1374.976074 774.101013 1381.653931 777.50293 1387.702026 782.416992 C 1393.75 787.331055 1398.790039 794.008972 1402.822021 802.450989 C 1406.854004 810.893066 1408.869995 821.665894 1408.869995 834.77002 C 1408.869995 847.118042 1407.169067 857.512939 1403.766968 865.954956 C 1400.36499 874.397034 1396.018066 881.263977 1390.725952 886.55603 C 1385.43396 891.848022 1379.512085 895.690979 1372.959961 898.084961 C 1366.407959 900.479004 1359.982056 901.676025 1353.682007 901.676025 L 1410.76001 1037 Z M 1400.932007 834.77002 C 1400.932007 823.681946 1399.357056 814.421021 1396.207031 806.987 C 1393.057007 799.552979 1388.899048 793.630981 1383.733032 789.221008 C 1378.567017 784.810974 1372.582031 781.661011 1365.777954 779.770996 C 1358.973999 777.880981 1352.044067 776.936035 1344.988037 776.936035 L 1302.651978 776.936035 L 1302.651978 894.494019 L 1347.634033 894.494019 C 1365.022095 894.494019 1378.251953 889.07605 1387.323975 878.23999 C 1396.395996 867.403931 1400.932007 852.914063 1400.932007 834.77002 Z M 1204.75 903.187988 C 1204.75 923.600098 1202.922974 942.373901 1199.269043 959.51001 C 1195.61499 976.646118 1190.322998 991.387939 1183.392944 1003.735962 C 1176.463013 1016.084045 1168.020996 1025.7229 1158.067017 1032.652954 C 1148.112915 1039.583008 1136.710083 1043.047974 1123.85791 1043.047974 C 1111.005859 1043.047974 1099.603027 1039.583008 1089.648926 1032.652954 C 1079.694946 1025.7229 1071.253052 1016.084045 1064.322998 1003.735962 C 1057.392944 991.387939 1052.101074 976.646118 1048.447021 959.51001 C 1044.792969 942.373901 1042.966064 923.600098 1042.966064 903.187988 C 1042.966064 882.775879 1044.666992 864.002075 1048.06897 846.865967 C 1051.470947 829.729919 1056.573975 814.988037 1063.37793 802.640015 C 1070.182007 790.291931 1078.624023 780.653076 1088.703979 773.723022 C 1098.784058 766.792969 1110.501953 763.328003 1123.85791 763.328003 C 1136.710083 763.328003 1148.112915 766.792969 1158.067017 773.723022 C 1168.020996 780.653076 1176.463013 790.291931 1183.392944 802.640015 C 1190.322998 814.988037 1195.61499 829.729919 1199.269043 846.865967 C 1202.922974 864.002075 1204.75 882.775879 1204.75 903.187988 Z M 1196.43396 903.187988 C 1196.43396 884.79187 1194.859009 867.53009 1191.708984 851.401978 C 1188.55896 835.273926 1183.960083 821.288086 1177.911987 809.44397 C 1171.864014 797.599976 1164.304077 788.213013 1155.232056 781.282959 C 1146.159912 774.352966 1135.702026 770.888 1123.85791 770.888 C 1111.51001 770.888 1100.800049 774.352966 1091.728027 781.282959 C 1082.656006 788.213013 1075.095947 797.599976 1069.047974 809.44397 C 1063 821.288086 1058.5271 835.273926 1055.629028 851.401978 C 1052.730957 867.53009 1051.281982 884.79187 1051.281982 903.187988 C 1051.281982 921.584106 1052.730957 938.782898 1055.629028 954.785034 C 1058.5271 970.787109 1063 984.772949 1069.047974 996.742981 C 1075.095947 1008.713074 1082.656006 1018.162964 1091.728027 1025.093018 C 1100.800049 1032.023071 1111.51001 1035.488037 1123.85791 1035.488037 C 1135.954102 1035.488037 1146.537964 1032.023071 1155.609985 1025.093018 C 1164.682007 1018.162964 1172.241943 1008.713074 1178.290039 996.742981 C 1184.338013 984.772949 1188.874023 970.787109 1191.897949 954.785034 C 1194.921997 938.782898 1196.43396 921.584106 1196.43396 903.187988 Z M 966.609985 974.252014 C 966.609985 985.340088 965.035034 995.167969 961.88501 1003.735962 C 958.734985 1012.304077 954.387939 1019.485962 948.843994 1025.281982 C 943.300049 1031.078003 936.937012 1035.488037 929.755005 1038.511963 C 922.572998 1041.536011 915.07605 1043.047974 907.263916 1043.047974 C 894.411865 1043.047974 883.009033 1040.213013 873.054932 1034.542969 C 863.100952 1028.872925 854.974121 1020.746033 848.674072 1010.161987 L 855.478027 1005.247986 C 861.526001 1015.328064 869.211914 1022.887939 878.536011 1027.927979 C 887.860107 1032.968018 897.309937 1035.488037 906.885986 1035.488037 C 913.690063 1035.488037 920.178955 1034.102051 926.353027 1031.329956 C 932.5271 1028.557983 937.944946 1024.588989 942.606934 1019.422974 C 947.269043 1014.256958 951.049072 1007.831055 953.947021 1000.14502 C 956.844971 992.458984 958.293945 983.702026 958.293945 973.874023 C 958.293945 964.801941 956.781982 956.738037 953.758057 949.682007 C 950.734009 942.625977 946.765015 936.389038 941.851074 930.971008 C 936.937012 925.552979 931.456055 920.828003 925.407959 916.796021 C 919.359985 912.763977 913.312012 909.236023 907.263916 906.212036 C 900.208008 902.68396 893.341064 898.715027 886.663086 894.304993 C 879.984985 889.89502 874.125977 884.729004 869.085938 878.807007 C 864.045898 872.88501 859.950928 866.018066 856.801025 858.205994 C 853.651001 850.393921 852.075928 841.322021 852.075928 830.98999 C 852.075928 819.901978 853.713989 810.137085 856.98999 801.695007 C 860.265991 793.25293 864.676025 786.197021 870.219971 780.526978 C 875.764038 774.856934 882.189941 770.572998 889.498047 767.674988 C 896.80603 764.776978 904.491943 763.328003 912.55603 763.328003 C 922.888062 763.328003 932.400879 765.406982 941.094971 769.565002 C 949.789063 773.723022 956.907959 780.715942 962.452026 790.544006 L 956.404053 795.458008 C 950.859985 786.133911 944.371094 779.708008 936.937012 776.179993 C 929.50293 772.651978 921.25 770.888 912.177979 770.888 C 905.87793 770.888 899.641113 772.084961 893.467041 774.479004 C 887.292969 776.873047 881.749023 780.526978 876.834961 785.44104 C 871.920898 790.35498 867.952026 796.654968 864.927979 804.341003 C 861.904053 812.027039 860.39209 821.161987 860.39209 831.745972 C 860.39209 841.070068 861.778076 849.19696 864.550049 856.127014 C 867.322021 863.057007 870.975952 869.041992 875.511963 874.082031 C 880.048096 879.12207 885.151001 883.531982 890.821045 887.312012 C 896.490967 891.092041 902.0979 894.367981 907.64209 897.140015 C 915.454102 901.171997 922.887939 905.518982 929.94397 910.18103 C 937 914.843018 943.237061 920.197998 948.655029 926.245972 C 954.072998 932.294067 958.419922 939.223999 961.696045 947.036011 C 964.972046 954.848022 966.609985 963.919922 966.609985 974.252014 Z M 752.283936 1037 L 752.283936 769.375977 L 760.599976 769.375977 L 760.599976 1037 Z M 612.046021 1037 L 600.328003 1037 L 533.421997 769.375977 L 541.738037 769.375977 L 605.998047 1029.439941 L 606.754028 1029.439941 L 671.77002 769.375977 L 680.085938 769.375977 Z M 472.942017 903.187988 C 472.942017 925.868103 470.548096 945.649902 465.76001 962.533997 C 460.971924 979.418091 454.546021 993.340942 446.481934 1004.302979 C 438.417969 1015.265076 428.842041 1023.454956 417.754028 1028.873047 C 406.666016 1034.291016 394.948059 1037 382.599976 1037 L 334.971985 1037 L 334.971985 769.375977 L 382.978027 769.375977 C 395.32605 769.375977 406.980957 772.084961 417.942993 777.502991 C 428.905029 782.921021 438.480957 791.17395 446.671021 802.261963 C 454.861084 813.350098 461.286987 827.272949 465.948975 844.031006 C 470.611084 860.789063 472.942017 880.507874 472.942017 903.187988 Z M 343.287964 776.936035 L 343.287964 1029.439941 L 381.466003 1029.439941 C 393.058044 1029.439941 403.893921 1026.920044 413.973999 1021.880005 C 424.054077 1016.839966 432.874023 1009.154053 440.43396 998.822021 C 447.994019 988.489929 453.916016 975.386108 458.199951 959.51001 C 462.484009 943.633911 464.625977 924.860107 464.625977 903.187988 C 464.625977 881.515869 462.484009 862.742065 458.199951 846.865967 C 453.916016 830.989929 447.994019 817.886047 440.43396 807.553955 C 432.874023 797.221924 424.054077 789.536011 413.973999 784.495972 C 403.893921 779.455933 393.058044 776.936035 381.466003 776.936035 Z M 235.179993 960.643982 L 141.057983 960.643982 L 120.645996 1037 L 112.330017 1037 L 181.504028 769.375977 L 195.867981 769.375977 L 262.773987 1037 L 254.458008 1037 Z M 142.947998 953.083984 L 233.289978 953.083984 L 189.442017 775.046021 L 187.929993 775.046021 Z"/>
</svg>
